<svg width="191" height="43" viewBox="0 0 191 43" fill="none" xmlns="http://www.w3.org/2000/svg">
<path d="M54.0294 12.6565C55.8576 12.6565 57.4553 13.0188 58.8224 13.7435C60.1894 14.4682 61.2435 15.4894 61.9847 16.8071C62.7424 18.1082 63.1212 19.6153 63.1212 21.3282C63.1212 23.0247 62.7424 24.5318 61.9847 25.8494C61.2435 27.1671 60.1812 28.1882 58.7976 28.9129C57.4306 29.6376 55.8412 30 54.0294 30H47.5318V12.6565H54.0294ZM53.7576 26.3435C55.3553 26.3435 56.5988 25.9071 57.4882 25.0341C58.3776 24.1612 58.8224 22.9259 58.8224 21.3282C58.8224 19.7306 58.3776 18.4871 57.4882 17.5976C56.5988 16.7082 55.3553 16.2635 53.7576 16.2635H51.7565V26.3435H53.7576ZM78.4774 22.8847C78.4774 23.28 78.4527 23.6918 78.4033 24.12H68.8421C68.908 24.9765 69.1798 25.6353 69.6574 26.0965C70.1515 26.5412 70.7527 26.7635 71.461 26.7635C72.5151 26.7635 73.248 26.3188 73.6598 25.4294H78.1562C77.9257 26.3353 77.5057 27.1506 76.8962 27.8753C76.3033 28.6 75.5539 29.1682 74.648 29.58C73.7421 29.9918 72.7292 30.1976 71.6092 30.1976C70.2586 30.1976 69.0562 29.9094 68.0021 29.3329C66.948 28.7565 66.1245 27.9329 65.5315 26.8624C64.9386 25.7918 64.6421 24.54 64.6421 23.1071C64.6421 21.6741 64.9304 20.4224 65.5068 19.3518C66.0998 18.2812 66.9233 17.4576 67.9774 16.8812C69.0315 16.3047 70.2421 16.0165 71.6092 16.0165C72.9433 16.0165 74.1292 16.2965 75.1668 16.8565C76.2045 17.4165 77.0115 18.2153 77.588 19.2529C78.181 20.2906 78.4774 21.5012 78.4774 22.8847ZM74.1539 21.7729C74.1539 21.0482 73.9068 20.4718 73.4127 20.0435C72.9186 19.6153 72.301 19.4012 71.5598 19.4012C70.8515 19.4012 70.2504 19.6071 69.7562 20.0188C69.2786 20.4306 68.9821 21.0153 68.8668 21.7729H74.1539ZM86.9073 26.0471L89.8968 16.2141H94.3932L89.5015 30H84.2885L79.3968 16.2141H83.9179L86.9073 26.0471ZM101.261 30.1976C99.7126 30.1976 98.4444 29.8435 97.4562 29.1353C96.4844 28.4106 95.9409 27.4306 95.8256 26.1953H97.6044C97.6868 26.9529 98.0409 27.5706 98.6668 28.0482C99.3091 28.5094 100.166 28.74 101.236 28.74C102.175 28.74 102.908 28.5176 103.435 28.0729C103.979 27.6282 104.25 27.0765 104.25 26.4176C104.25 25.9565 104.102 25.5776 103.806 25.2812C103.509 24.9847 103.13 24.7541 102.669 24.5894C102.224 24.4082 101.615 24.2188 100.841 24.0212C99.8362 23.7576 99.0209 23.4941 98.395 23.2306C97.7691 22.9671 97.2338 22.58 96.7891 22.0694C96.3609 21.5424 96.1468 20.8424 96.1468 19.9694C96.1468 19.3106 96.3444 18.7012 96.7397 18.1412C97.135 17.5812 97.695 17.1365 98.4197 16.8071C99.1444 16.4776 99.9679 16.3129 100.89 16.3129C102.34 16.3129 103.509 16.6835 104.399 17.4247C105.288 18.1494 105.766 19.1541 105.831 20.4388H104.102C104.053 19.6482 103.74 19.0141 103.163 18.5365C102.603 18.0424 101.829 17.7953 100.841 17.7953C99.9679 17.7953 99.2597 18.0012 98.7162 18.4129C98.1726 18.8247 97.9009 19.3353 97.9009 19.9447C97.9009 20.4718 98.0573 20.9082 98.3703 21.2541C98.6997 21.5835 99.1032 21.8471 99.5809 22.0447C100.059 22.2259 100.701 22.4318 101.508 22.6624C102.48 22.9259 103.254 23.1812 103.83 23.4282C104.407 23.6753 104.901 24.0376 105.313 24.5153C105.724 24.9929 105.939 25.6271 105.955 26.4176C105.955 27.1424 105.757 27.7929 105.362 28.3694C104.967 28.9294 104.415 29.3741 103.707 29.7035C102.999 30.0329 102.183 30.1976 101.261 30.1976ZM108.42 23.2306C108.42 21.8471 108.692 20.6365 109.235 19.5988C109.795 18.5447 110.561 17.7376 111.533 17.1776C112.521 16.6012 113.633 16.3129 114.868 16.3129C116.153 16.3129 117.256 16.6094 118.179 17.2024C119.117 17.7953 119.793 18.5529 120.205 19.4753V16.5106H121.934V30H120.205V27.0106C119.776 27.9329 119.093 28.6988 118.154 29.3082C117.232 29.9012 116.128 30.1976 114.843 30.1976C113.625 30.1976 112.521 29.9094 111.533 29.3329C110.561 28.7565 109.795 27.9412 109.235 26.8871C108.692 25.8329 108.42 24.6141 108.42 23.2306ZM120.205 23.2553C120.205 22.1682 119.982 21.2129 119.537 20.3894C119.093 19.5659 118.483 18.9318 117.709 18.4871C116.952 18.0424 116.112 17.82 115.189 17.82C114.234 17.82 113.377 18.0341 112.62 18.4624C111.862 18.8906 111.261 19.5165 110.816 20.34C110.388 21.1471 110.174 22.1106 110.174 23.2306C110.174 24.3341 110.388 25.3059 110.816 26.1459C111.261 26.9694 111.862 27.6035 112.62 28.0482C113.377 28.4765 114.234 28.6906 115.189 28.6906C116.112 28.6906 116.952 28.4682 117.709 28.0235C118.483 27.5788 119.093 26.9447 119.537 26.1212C119.982 25.2976 120.205 24.3424 120.205 23.2553ZM132.207 16.2635C133.821 16.2635 135.138 16.7659 136.16 17.7706C137.181 18.7588 137.691 20.2 137.691 22.0941V30H135.987V22.2918C135.987 20.8259 135.616 19.7059 134.875 18.9318C134.15 18.1576 133.154 17.7706 131.886 17.7706C130.584 17.7706 129.547 18.1824 128.773 19.0059C127.998 19.8294 127.611 21.04 127.611 22.6376V30H125.882V16.5106H127.611V18.8082C128.04 17.9847 128.657 17.3588 129.464 16.9306C130.271 16.4859 131.186 16.2635 132.207 16.2635ZM143.764 17.9682V26.3435C143.764 27.1671 143.921 27.7353 144.234 28.0482C144.547 28.3612 145.099 28.5176 145.889 28.5176H147.47V30H145.617C144.399 30 143.493 29.72 142.9 29.16C142.307 28.5835 142.01 27.6447 142.01 26.3435V17.9682H140.133V16.5106H142.01V13.1259H143.764V16.5106H147.47V17.9682H143.764ZM149.532 23.2306C149.532 21.8471 149.804 20.6365 150.347 19.5988C150.907 18.5447 151.673 17.7376 152.645 17.1776C153.633 16.6012 154.745 16.3129 155.98 16.3129C157.265 16.3129 158.368 16.6094 159.291 17.2024C160.23 17.7953 160.905 18.5529 161.317 19.4753V16.5106H163.046V30H161.317V27.0106C160.888 27.9329 160.205 28.6988 159.266 29.3082C158.344 29.9012 157.24 30.1976 155.955 30.1976C154.737 30.1976 153.633 29.9094 152.645 29.3329C151.673 28.7565 150.907 27.9412 150.347 26.8871C149.804 25.8329 149.532 24.6141 149.532 23.2306ZM161.317 23.2553C161.317 22.1682 161.094 21.2129 160.65 20.3894C160.205 19.5659 159.595 18.9318 158.821 18.4871C158.064 18.0424 157.224 17.82 156.301 17.82C155.346 17.82 154.49 18.0341 153.732 18.4624C152.974 18.8906 152.373 19.5165 151.928 20.34C151.5 21.1471 151.286 22.1106 151.286 23.2306C151.286 24.3341 151.5 25.3059 151.928 26.1459C152.373 26.9694 152.974 27.6035 153.732 28.0482C154.49 28.4765 155.346 28.6906 156.301 28.6906C157.224 28.6906 158.064 28.4682 158.821 28.0235C159.595 27.5788 160.205 26.9447 160.65 26.1212C161.094 25.2976 161.317 24.3424 161.317 23.2553ZM168.724 18.9071C169.102 18.0671 169.679 17.4165 170.453 16.9553C171.244 16.4941 172.207 16.2635 173.344 16.2635V18.0671H172.874C171.622 18.0671 170.618 18.4047 169.86 19.08C169.102 19.7553 168.724 20.8835 168.724 22.4647V30H166.994V16.5106H168.724V18.9071ZM175.155 23.2306C175.155 21.8471 175.426 20.6365 175.97 19.5988C176.53 18.5447 177.296 17.7376 178.268 17.1776C179.256 16.6012 180.368 16.3129 181.603 16.3129C182.888 16.3129 183.991 16.6094 184.913 17.2024C185.852 17.7953 186.528 18.5529 186.939 19.4753V16.5106H188.669V30H186.939V27.0106C186.511 27.9329 185.828 28.6988 184.889 29.3082C183.966 29.9012 182.863 30.1976 181.578 30.1976C180.359 30.1976 179.256 29.9094 178.268 29.3329C177.296 28.7565 176.53 27.9412 175.97 26.8871C175.426 25.8329 175.155 24.6141 175.155 23.2306ZM186.939 23.2553C186.939 22.1682 186.717 21.2129 186.272 20.3894C185.828 19.5659 185.218 18.9318 184.444 18.4871C183.686 18.0424 182.846 17.82 181.924 17.82C180.969 17.82 180.112 18.0341 179.355 18.4624C178.597 18.8906 177.996 19.5165 177.551 20.34C177.123 21.1471 176.909 22.1106 176.909 23.2306C176.909 24.3341 177.123 25.3059 177.551 26.1459C177.996 26.9694 178.597 27.6035 179.355 28.0482C180.112 28.4765 180.969 28.6906 181.924 28.6906C182.846 28.6906 183.686 28.4682 184.444 28.0235C185.218 27.5788 185.828 26.9447 186.272 26.1212C186.717 25.2976 186.939 24.3424 186.939 23.2553Z" fill="white"/>
<path d="M18.9024 1.87777L18.9104 1.87316L18.9184 1.86847C18.9629 1.84236 19.0361 1.83613 19.1012 1.87383L19.1012 1.87384L19.1076 1.87752L36.0566 11.6019C36.0568 11.6021 36.057 11.6022 36.0573 11.6023C36.1196 11.6385 36.1528 11.7007 36.1528 11.7638V31.2362C36.1528 31.2993 36.1196 31.3614 36.0574 31.3976C36.0571 31.3978 36.0569 31.3979 36.0566 31.3981L19.1076 41.1225L19.1012 41.1262C19.0361 41.1639 18.9629 41.1576 18.9184 41.1315L18.9108 41.1271L18.9032 41.1227L1.96223 31.3969L1.96225 31.3969L1.95079 31.3904C1.87126 31.3455 1.84722 31.2806 1.84722 31.2362V11.7638C1.84722 11.7204 1.85813 11.6883 1.87064 11.6666C1.88233 11.6462 1.89972 11.6267 1.92998 11.6096L1.93 11.6097L1.94057 11.6036L18.9024 1.87777Z" fill="#001227" stroke="white" stroke-width="3.69444"/>
<path d="M18.5 13.96C19.98 13.96 21.2733 14.2533 22.38 14.84C23.4867 15.4267 24.34 16.2533 24.94 17.32C25.5533 18.3733 25.86 19.5933 25.86 20.98C25.86 22.3533 25.5533 23.5733 24.94 24.64C24.34 25.7067 23.48 26.5333 22.36 27.12C21.2533 27.7067 19.9667 28 18.5 28H13.24V13.96H18.5ZM18.28 25.04C19.5733 25.04 20.58 24.6867 21.3 23.98C22.02 23.2733 22.38 22.2733 22.38 20.98C22.38 19.6867 22.02 18.68 21.3 17.96C20.58 17.24 19.5733 16.88 18.28 16.88H16.66V25.04H18.28Z" fill="white"/>
</svg>
