<svg width="38" height="43" viewBox="0 0 38 43" fill="none" xmlns="http://www.w3.org/2000/svg">
<mask id="path-1-inside-1" fill="white">
<path fill-rule="evenodd" clip-rule="evenodd" d="M17.9835 0.275289C18.609 -0.0917629 19.393 -0.0917629 20.0269 0.275289L36.9783 10.0011C37.6122 10.3661 38 11.038 38 11.7638V31.2362C38 31.962 37.6122 32.6339 36.9783 32.9989L20.0269 42.7247C19.393 43.0918 18.609 43.0918 17.9835 42.7247L1.04252 32.9989C0.396159 32.6339 0 31.962 0 31.2362V11.7638C0 11.038 0.375352 10.3661 1.02172 10.0011L17.9835 0.275289Z"/>
</mask>
<path fill-rule="evenodd" clip-rule="evenodd" d="M17.9835 0.275289C18.609 -0.0917629 19.393 -0.0917629 20.0269 0.275289L36.9783 10.0011C37.6122 10.3661 38 11.038 38 11.7638V31.2362C38 31.962 37.6122 32.6339 36.9783 32.9989L20.0269 42.7247C19.393 43.0918 18.609 43.0918 17.9835 42.7247L1.04252 32.9989C0.396159 32.6339 0 31.962 0 31.2362V11.7638C0 11.038 0.375352 10.3661 1.02172 10.0011L17.9835 0.275289Z" fill="#001227" stroke="white" stroke-width="7.38889" mask="url(#path-1-inside-1)"/>
<path d="M18.5 13.96C19.98 13.96 21.2733 14.2533 22.38 14.84C23.4867 15.4267 24.34 16.2533 24.94 17.32C25.5533 18.3733 25.86 19.5933 25.86 20.98C25.86 22.3533 25.5533 23.5733 24.94 24.64C24.34 25.7067 23.48 26.5333 22.36 27.12C21.2533 27.7067 19.9667 28 18.5 28H13.24V13.96H18.5ZM18.28 25.04C19.5733 25.04 20.58 24.6867 21.3 23.98C22.02 23.2733 22.38 22.2733 22.38 20.98C22.38 19.6867 22.02 18.68 21.3 17.96C20.58 17.24 19.5733 16.88 18.28 16.88H16.66V25.04H18.28Z" fill="white"/>
</svg>
