<svg width="38" height="43" viewBox="0 0 38 43" fill="none" xmlns="http://www.w3.org/2000/svg">
<path d="M18.8984 1.87847L18.9064 1.8739L18.9144 1.86924C18.9609 1.84208 19.0381 1.83591 19.1053 1.87456L19.1052 1.87458L19.1117 1.87823L36.0606 11.5461C36.0609 11.5462 36.0611 11.5464 36.0613 11.5465C36.1245 11.583 36.1528 11.6417 36.1528 11.6954V31.0546C36.1528 31.1083 36.1245 31.167 36.0613 31.2035C36.0611 31.2036 36.0609 31.2038 36.0606 31.2039L19.1116 40.8718L19.1053 40.8754C19.0381 40.9141 18.9609 40.9079 18.9144 40.8808L18.9068 40.8764L18.8992 40.872L1.9582 31.2027L1.95822 31.2027L1.94677 31.1963C1.86617 31.151 1.84722 31.0894 1.84722 31.0546V11.6954C1.84722 11.6561 1.85707 11.6276 1.86831 11.6081C1.87877 11.59 1.8952 11.571 1.92597 11.5537L1.92599 11.5538L1.93654 11.5478L18.8984 1.87847Z" fill="#001227" stroke="white" stroke-width="3.69444"/>
<path d="M18.4722 12.7911C20.0344 12.7911 21.3996 13.1007 22.5678 13.72C23.7359 14.3392 24.6366 15.2118 25.27 16.3377C25.9174 17.4496 26.2411 18.7374 26.2411 20.2011C26.2411 21.6507 25.9174 22.9385 25.27 24.0644C24.6366 25.1903 23.7289 26.0629 22.5466 26.6822C21.3785 27.3015 20.0203 27.6111 18.4722 27.6111H12.92V12.7911H18.4722ZM18.24 24.4866C19.6052 24.4866 20.6678 24.1137 21.4278 23.3678C22.1878 22.6218 22.5678 21.5663 22.5678 20.2011C22.5678 18.8359 22.1878 17.7733 21.4278 17.0133C20.6678 16.2533 19.6052 15.8733 18.24 15.8733H16.53V24.4866H18.24Z" fill="white"/>
</svg>
